<mxfile host="app.diagrams.net" agent="Mozilla/5.0 (Windows NT 10.0; Win64; x64) AppleWebKit/537.36 (KHTML, like Gecko) Chrome/135.0.0.0 Safari/537.36 Edg/135.0.0.0" version="26.1.3">
  <diagram name="第 1 页" id="7q6q0Zq5l3fnQO4hX1ic">
    <mxGraphModel dx="1226" dy="625" grid="1" gridSize="10" guides="1" tooltips="1" connect="1" arrows="1" fold="1" page="1" pageScale="1" pageWidth="827" pageHeight="1169" math="0" shadow="0">
      <root>
        <mxCell id="0" />
        <mxCell id="1" parent="0" />
        <mxCell id="WxFiv181dfcM7yHNMsCA-7" style="edgeStyle=orthogonalEdgeStyle;rounded=0;orthogonalLoop=1;jettySize=auto;html=1;exitX=1;exitY=0.5;exitDx=0;exitDy=0;entryX=0;entryY=0.5;entryDx=0;entryDy=0;" edge="1" parent="1" source="WxFiv181dfcM7yHNMsCA-4" target="WxFiv181dfcM7yHNMsCA-6">
          <mxGeometry relative="1" as="geometry" />
        </mxCell>
        <mxCell id="WxFiv181dfcM7yHNMsCA-29" value="" style="edgeStyle=orthogonalEdgeStyle;rounded=0;orthogonalLoop=1;jettySize=auto;html=1;" edge="1" parent="1" source="WxFiv181dfcM7yHNMsCA-4" target="WxFiv181dfcM7yHNMsCA-28">
          <mxGeometry relative="1" as="geometry" />
        </mxCell>
        <mxCell id="WxFiv181dfcM7yHNMsCA-4" value="&lt;div&gt;信评审批&lt;/div&gt;开启流程" style="rounded=1;whiteSpace=wrap;html=1;" vertex="1" parent="1">
          <mxGeometry width="120" height="60" as="geometry" />
        </mxCell>
        <mxCell id="WxFiv181dfcM7yHNMsCA-8" style="edgeStyle=orthogonalEdgeStyle;rounded=0;orthogonalLoop=1;jettySize=auto;html=1;exitX=1;exitY=0.5;exitDx=0;exitDy=0;" edge="1" parent="1" source="WxFiv181dfcM7yHNMsCA-6">
          <mxGeometry relative="1" as="geometry">
            <mxPoint x="350" y="30" as="targetPoint" />
          </mxGeometry>
        </mxCell>
        <mxCell id="WxFiv181dfcM7yHNMsCA-6" value="FlowUtils.start()" style="rounded=0;whiteSpace=wrap;html=1;" vertex="1" parent="1">
          <mxGeometry x="190" width="120" height="60" as="geometry" />
        </mxCell>
        <mxCell id="WxFiv181dfcM7yHNMsCA-14" style="edgeStyle=orthogonalEdgeStyle;rounded=0;orthogonalLoop=1;jettySize=auto;html=1;exitX=0.5;exitY=1;exitDx=0;exitDy=0;entryX=0.5;entryY=0;entryDx=0;entryDy=0;" edge="1" parent="1" source="WxFiv181dfcM7yHNMsCA-9">
          <mxGeometry relative="1" as="geometry">
            <mxPoint x="410" y="90" as="targetPoint" />
          </mxGeometry>
        </mxCell>
        <mxCell id="WxFiv181dfcM7yHNMsCA-9" value="流程ID不为空" style="rounded=0;whiteSpace=wrap;html=1;" vertex="1" parent="1">
          <mxGeometry x="350" width="120" height="60" as="geometry" />
        </mxCell>
        <mxCell id="WxFiv181dfcM7yHNMsCA-16" style="edgeStyle=orthogonalEdgeStyle;rounded=0;orthogonalLoop=1;jettySize=auto;html=1;exitX=1;exitY=0.5;exitDx=0;exitDy=0;entryX=0;entryY=0.5;entryDx=0;entryDy=0;" edge="1" parent="1" target="WxFiv181dfcM7yHNMsCA-15">
          <mxGeometry relative="1" as="geometry">
            <mxPoint x="470" y="120" as="sourcePoint" />
          </mxGeometry>
        </mxCell>
        <mxCell id="WxFiv181dfcM7yHNMsCA-18" style="edgeStyle=orthogonalEdgeStyle;rounded=0;orthogonalLoop=1;jettySize=auto;html=1;exitX=1;exitY=0.5;exitDx=0;exitDy=0;entryX=0;entryY=0.5;entryDx=0;entryDy=0;" edge="1" parent="1" source="WxFiv181dfcM7yHNMsCA-15" target="WxFiv181dfcM7yHNMsCA-17">
          <mxGeometry relative="1" as="geometry" />
        </mxCell>
        <mxCell id="WxFiv181dfcM7yHNMsCA-15" value="根据流程编码&lt;div&gt;项目ID、交易ID&lt;/div&gt;&lt;div&gt;openfeign开启流程&lt;/div&gt;" style="rounded=0;whiteSpace=wrap;html=1;" vertex="1" parent="1">
          <mxGeometry x="510" y="90" width="120" height="60" as="geometry" />
        </mxCell>
        <mxCell id="WxFiv181dfcM7yHNMsCA-17" value="redis加锁开启流程" style="rounded=0;whiteSpace=wrap;html=1;" vertex="1" parent="1">
          <mxGeometry x="680" y="90" width="120" height="60" as="geometry" />
        </mxCell>
        <mxCell id="WxFiv181dfcM7yHNMsCA-22" style="edgeStyle=orthogonalEdgeStyle;rounded=0;orthogonalLoop=1;jettySize=auto;html=1;exitX=0.5;exitY=1;exitDx=0;exitDy=0;entryX=0.5;entryY=0;entryDx=0;entryDy=0;" edge="1" parent="1" source="WxFiv181dfcM7yHNMsCA-20" target="WxFiv181dfcM7yHNMsCA-21">
          <mxGeometry relative="1" as="geometry" />
        </mxCell>
        <mxCell id="WxFiv181dfcM7yHNMsCA-20" value="&lt;div&gt;开启流程&lt;/div&gt;获得流程操作返回数据" style="rounded=0;whiteSpace=wrap;html=1;" vertex="1" parent="1">
          <mxGeometry x="350" y="90" width="120" height="60" as="geometry" />
        </mxCell>
        <mxCell id="WxFiv181dfcM7yHNMsCA-26" value="" style="edgeStyle=orthogonalEdgeStyle;rounded=0;orthogonalLoop=1;jettySize=auto;html=1;" edge="1" parent="1" source="WxFiv181dfcM7yHNMsCA-21" target="WxFiv181dfcM7yHNMsCA-25">
          <mxGeometry relative="1" as="geometry" />
        </mxCell>
        <mxCell id="WxFiv181dfcM7yHNMsCA-21" value="流程历史交易数据&lt;div&gt;更新/入库&lt;/div&gt;" style="rounded=0;whiteSpace=wrap;html=1;" vertex="1" parent="1">
          <mxGeometry x="350" y="180" width="120" height="60" as="geometry" />
        </mxCell>
        <mxCell id="WxFiv181dfcM7yHNMsCA-35" style="edgeStyle=orthogonalEdgeStyle;rounded=0;orthogonalLoop=1;jettySize=auto;html=1;exitX=0;exitY=0.5;exitDx=0;exitDy=0;entryX=1;entryY=0.5;entryDx=0;entryDy=0;fillColor=#f8cecc;strokeColor=#b85450;" edge="1" parent="1" source="WxFiv181dfcM7yHNMsCA-25" target="WxFiv181dfcM7yHNMsCA-33">
          <mxGeometry relative="1" as="geometry" />
        </mxCell>
        <mxCell id="WxFiv181dfcM7yHNMsCA-25" value="返回流程操作返回数据" style="whiteSpace=wrap;html=1;rounded=0;" vertex="1" parent="1">
          <mxGeometry x="350" y="270" width="120" height="60" as="geometry" />
        </mxCell>
        <mxCell id="WxFiv181dfcM7yHNMsCA-31" value="" style="edgeStyle=orthogonalEdgeStyle;rounded=0;orthogonalLoop=1;jettySize=auto;html=1;" edge="1" parent="1" source="WxFiv181dfcM7yHNMsCA-28" target="WxFiv181dfcM7yHNMsCA-30">
          <mxGeometry relative="1" as="geometry" />
        </mxCell>
        <mxCell id="WxFiv181dfcM7yHNMsCA-28" value="更新流程关联表&lt;div&gt;历史信息表&lt;/div&gt;" style="whiteSpace=wrap;html=1;rounded=1;" vertex="1" parent="1">
          <mxGeometry y="90" width="120" height="60" as="geometry" />
        </mxCell>
        <mxCell id="WxFiv181dfcM7yHNMsCA-34" value="" style="edgeStyle=orthogonalEdgeStyle;rounded=0;orthogonalLoop=1;jettySize=auto;html=1;" edge="1" parent="1" source="WxFiv181dfcM7yHNMsCA-30" target="WxFiv181dfcM7yHNMsCA-33">
          <mxGeometry relative="1" as="geometry" />
        </mxCell>
        <mxCell id="WxFiv181dfcM7yHNMsCA-30" value="根据交易ID查询流ID&lt;div&gt;列表&lt;/div&gt;" style="whiteSpace=wrap;html=1;rounded=1;" vertex="1" parent="1">
          <mxGeometry y="180" width="120" height="60" as="geometry" />
        </mxCell>
        <mxCell id="WxFiv181dfcM7yHNMsCA-37" value="" style="edgeStyle=orthogonalEdgeStyle;rounded=0;orthogonalLoop=1;jettySize=auto;html=1;" edge="1" parent="1" source="WxFiv181dfcM7yHNMsCA-33" target="WxFiv181dfcM7yHNMsCA-36">
          <mxGeometry relative="1" as="geometry" />
        </mxCell>
        <mxCell id="WxFiv181dfcM7yHNMsCA-33" value="流节点返回数据封装成其他数据类型" style="whiteSpace=wrap;html=1;rounded=1;" vertex="1" parent="1">
          <mxGeometry y="270" width="120" height="60" as="geometry" />
        </mxCell>
        <mxCell id="WxFiv181dfcM7yHNMsCA-39" value="" style="edgeStyle=orthogonalEdgeStyle;rounded=0;orthogonalLoop=1;jettySize=auto;html=1;" edge="1" parent="1" source="WxFiv181dfcM7yHNMsCA-36" target="WxFiv181dfcM7yHNMsCA-38">
          <mxGeometry relative="1" as="geometry" />
        </mxCell>
        <mxCell id="WxFiv181dfcM7yHNMsCA-51" value="" style="edgeStyle=orthogonalEdgeStyle;rounded=0;orthogonalLoop=1;jettySize=auto;html=1;" edge="1" parent="1" source="WxFiv181dfcM7yHNMsCA-36" target="WxFiv181dfcM7yHNMsCA-50">
          <mxGeometry relative="1" as="geometry" />
        </mxCell>
        <mxCell id="WxFiv181dfcM7yHNMsCA-36" value="发送通知&lt;div&gt;人员id：从流节点获取&lt;/div&gt;" style="whiteSpace=wrap;html=1;rounded=1;" vertex="1" parent="1">
          <mxGeometry y="360" width="120" height="60" as="geometry" />
        </mxCell>
        <mxCell id="WxFiv181dfcM7yHNMsCA-41" value="" style="edgeStyle=orthogonalEdgeStyle;rounded=0;orthogonalLoop=1;jettySize=auto;html=1;" edge="1" parent="1" source="WxFiv181dfcM7yHNMsCA-38" target="WxFiv181dfcM7yHNMsCA-40">
          <mxGeometry relative="1" as="geometry" />
        </mxCell>
        <mxCell id="WxFiv181dfcM7yHNMsCA-47" value="" style="edgeStyle=orthogonalEdgeStyle;rounded=0;orthogonalLoop=1;jettySize=auto;html=1;" edge="1" parent="1" source="WxFiv181dfcM7yHNMsCA-38" target="WxFiv181dfcM7yHNMsCA-46">
          <mxGeometry relative="1" as="geometry" />
        </mxCell>
        <mxCell id="WxFiv181dfcM7yHNMsCA-38" value="next()" style="whiteSpace=wrap;html=1;rounded=1;" vertex="1" parent="1">
          <mxGeometry x="190" y="360" width="120" height="60" as="geometry" />
        </mxCell>
        <mxCell id="WxFiv181dfcM7yHNMsCA-43" value="" style="edgeStyle=orthogonalEdgeStyle;rounded=0;orthogonalLoop=1;jettySize=auto;html=1;" edge="1" parent="1" source="WxFiv181dfcM7yHNMsCA-40" target="WxFiv181dfcM7yHNMsCA-42">
          <mxGeometry relative="1" as="geometry" />
        </mxCell>
        <mxCell id="WxFiv181dfcM7yHNMsCA-40" value="返回下个节点的&lt;div&gt;角色集合或人员集合&lt;/div&gt;" style="whiteSpace=wrap;html=1;rounded=1;" vertex="1" parent="1">
          <mxGeometry x="350" y="360" width="120" height="60" as="geometry" />
        </mxCell>
        <mxCell id="WxFiv181dfcM7yHNMsCA-45" value="" style="edgeStyle=orthogonalEdgeStyle;rounded=0;orthogonalLoop=1;jettySize=auto;html=1;" edge="1" parent="1" source="WxFiv181dfcM7yHNMsCA-42" target="WxFiv181dfcM7yHNMsCA-44">
          <mxGeometry relative="1" as="geometry" />
        </mxCell>
        <mxCell id="WxFiv181dfcM7yHNMsCA-42" value="获取下个审批节点&lt;div&gt;的角色信息&lt;/div&gt;" style="whiteSpace=wrap;html=1;rounded=1;" vertex="1" parent="1">
          <mxGeometry x="350" y="450" width="120" height="60" as="geometry" />
        </mxCell>
        <mxCell id="WxFiv181dfcM7yHNMsCA-44" value="根据下个审批节点角色，&lt;div&gt;查询对应的人员集合&lt;/div&gt;" style="whiteSpace=wrap;html=1;rounded=1;" vertex="1" parent="1">
          <mxGeometry x="350" y="540" width="120" height="60" as="geometry" />
        </mxCell>
        <mxCell id="WxFiv181dfcM7yHNMsCA-48" style="edgeStyle=orthogonalEdgeStyle;rounded=0;orthogonalLoop=1;jettySize=auto;html=1;exitX=0;exitY=0.5;exitDx=0;exitDy=0;entryX=0.5;entryY=1;entryDx=0;entryDy=0;" edge="1" parent="1" source="WxFiv181dfcM7yHNMsCA-46" target="WxFiv181dfcM7yHNMsCA-36">
          <mxGeometry relative="1" as="geometry" />
        </mxCell>
        <mxCell id="WxFiv181dfcM7yHNMsCA-49" value="返回这些信息&lt;div&gt;用于后续通知&lt;/div&gt;" style="edgeLabel;html=1;align=center;verticalAlign=middle;resizable=0;points=[];" vertex="1" connectable="0" parent="WxFiv181dfcM7yHNMsCA-48">
          <mxGeometry x="-0.2295" y="-2" relative="1" as="geometry">
            <mxPoint as="offset" />
          </mxGeometry>
        </mxCell>
        <mxCell id="WxFiv181dfcM7yHNMsCA-46" value="&lt;font style=&quot;&quot;&gt;本质收集&lt;/font&gt;&lt;div&gt;&lt;font style=&quot;&quot;&gt;下一个审批节点的橘色集合或人员集合&lt;/font&gt;&lt;/div&gt;" style="whiteSpace=wrap;html=1;rounded=1;fillColor=#fff2cc;strokeColor=#d6b656;fontColor=#FFA01E;" vertex="1" parent="1">
          <mxGeometry x="190" y="450" width="120" height="60" as="geometry" />
        </mxCell>
        <mxCell id="WxFiv181dfcM7yHNMsCA-52" value="" style="edgeStyle=orthogonalEdgeStyle;rounded=0;orthogonalLoop=1;jettySize=auto;html=1;" edge="1" parent="1" source="WxFiv181dfcM7yHNMsCA-50" target="WxFiv181dfcM7yHNMsCA-36">
          <mxGeometry relative="1" as="geometry" />
        </mxCell>
        <mxCell id="WxFiv181dfcM7yHNMsCA-53" value="处理质押式逆回购" style="edgeLabel;html=1;align=center;verticalAlign=middle;resizable=0;points=[];" vertex="1" connectable="0" parent="WxFiv181dfcM7yHNMsCA-52">
          <mxGeometry x="-0.5556" y="-1" relative="1" as="geometry">
            <mxPoint as="offset" />
          </mxGeometry>
        </mxCell>
        <mxCell id="WxFiv181dfcM7yHNMsCA-55" value="" style="edgeStyle=orthogonalEdgeStyle;rounded=0;orthogonalLoop=1;jettySize=auto;html=1;" edge="1" parent="1" source="WxFiv181dfcM7yHNMsCA-50" target="WxFiv181dfcM7yHNMsCA-54">
          <mxGeometry relative="1" as="geometry" />
        </mxCell>
        <mxCell id="WxFiv181dfcM7yHNMsCA-73" value="" style="edgeStyle=orthogonalEdgeStyle;rounded=0;orthogonalLoop=1;jettySize=auto;html=1;" edge="1" parent="1" source="WxFiv181dfcM7yHNMsCA-50" target="WxFiv181dfcM7yHNMsCA-72">
          <mxGeometry relative="1" as="geometry" />
        </mxCell>
        <mxCell id="WxFiv181dfcM7yHNMsCA-50" value="质押式逆回购" style="whiteSpace=wrap;html=1;rounded=1;" vertex="1" parent="1">
          <mxGeometry y="525" width="120" height="60" as="geometry" />
        </mxCell>
        <mxCell id="WxFiv181dfcM7yHNMsCA-58" value="" style="edgeStyle=orthogonalEdgeStyle;rounded=0;orthogonalLoop=1;jettySize=auto;html=1;" edge="1" parent="1" source="WxFiv181dfcM7yHNMsCA-54" target="WxFiv181dfcM7yHNMsCA-57">
          <mxGeometry relative="1" as="geometry" />
        </mxCell>
        <mxCell id="WxFiv181dfcM7yHNMsCA-54" value="查询流程历史记录&lt;div&gt;审核意见包含“”豁免“”&lt;/div&gt;" style="whiteSpace=wrap;html=1;rounded=1;" vertex="1" parent="1">
          <mxGeometry x="190" y="525" width="120" height="60" as="geometry" />
        </mxCell>
        <mxCell id="WxFiv181dfcM7yHNMsCA-60" value="" style="edgeStyle=orthogonalEdgeStyle;rounded=0;orthogonalLoop=1;jettySize=auto;html=1;" edge="1" parent="1" source="WxFiv181dfcM7yHNMsCA-57" target="WxFiv181dfcM7yHNMsCA-59">
          <mxGeometry relative="1" as="geometry" />
        </mxCell>
        <mxCell id="WxFiv181dfcM7yHNMsCA-64" value="" style="edgeStyle=orthogonalEdgeStyle;rounded=0;orthogonalLoop=1;jettySize=auto;html=1;" edge="1" parent="1" source="WxFiv181dfcM7yHNMsCA-57" target="WxFiv181dfcM7yHNMsCA-63">
          <mxGeometry relative="1" as="geometry" />
        </mxCell>
        <mxCell id="WxFiv181dfcM7yHNMsCA-57" value="处理质押式回购的&lt;div&gt;审批数据&lt;/div&gt;&lt;div&gt;并保存&lt;/div&gt;" style="whiteSpace=wrap;html=1;rounded=1;" vertex="1" parent="1">
          <mxGeometry x="190" y="620" width="120" height="60" as="geometry" />
        </mxCell>
        <mxCell id="WxFiv181dfcM7yHNMsCA-62" value="" style="edgeStyle=orthogonalEdgeStyle;rounded=0;orthogonalLoop=1;jettySize=auto;html=1;" edge="1" parent="1" source="WxFiv181dfcM7yHNMsCA-59" target="WxFiv181dfcM7yHNMsCA-61">
          <mxGeometry relative="1" as="geometry" />
        </mxCell>
        <mxCell id="WxFiv181dfcM7yHNMsCA-59" value="债券信息为空&lt;div&gt;即质押式逆回购不携带&lt;/div&gt;&lt;div&gt;债券&lt;/div&gt;" style="whiteSpace=wrap;html=1;rounded=1;" vertex="1" parent="1">
          <mxGeometry x="350" y="620" width="120" height="60" as="geometry" />
        </mxCell>
        <mxCell id="WxFiv181dfcM7yHNMsCA-61" value="封装空数据&lt;div&gt;审计保存&lt;/div&gt;" style="whiteSpace=wrap;html=1;rounded=1;" vertex="1" parent="1">
          <mxGeometry x="500" y="620" width="120" height="60" as="geometry" />
        </mxCell>
        <mxCell id="WxFiv181dfcM7yHNMsCA-67" value="" style="edgeStyle=orthogonalEdgeStyle;rounded=0;orthogonalLoop=1;jettySize=auto;html=1;" edge="1" parent="1" source="WxFiv181dfcM7yHNMsCA-63" target="WxFiv181dfcM7yHNMsCA-66">
          <mxGeometry relative="1" as="geometry" />
        </mxCell>
        <mxCell id="WxFiv181dfcM7yHNMsCA-63" value="查询行权收益率&lt;div&gt;企业性质&lt;/div&gt;&lt;div&gt;主体评级+债项评级&lt;/div&gt;&lt;div&gt;内评等&lt;/div&gt;" style="whiteSpace=wrap;html=1;rounded=1;" vertex="1" parent="1">
          <mxGeometry x="190" y="720" width="120" height="60" as="geometry" />
        </mxCell>
        <mxCell id="WxFiv181dfcM7yHNMsCA-69" value="" style="edgeStyle=orthogonalEdgeStyle;rounded=0;orthogonalLoop=1;jettySize=auto;html=1;" edge="1" parent="1" source="WxFiv181dfcM7yHNMsCA-66" target="WxFiv181dfcM7yHNMsCA-68">
          <mxGeometry relative="1" as="geometry" />
        </mxCell>
        <mxCell id="WxFiv181dfcM7yHNMsCA-66" value="查询意见池" style="whiteSpace=wrap;html=1;rounded=1;" vertex="1" parent="1">
          <mxGeometry x="190" y="810" width="120" height="60" as="geometry" />
        </mxCell>
        <mxCell id="WxFiv181dfcM7yHNMsCA-71" value="" style="edgeStyle=orthogonalEdgeStyle;rounded=0;orthogonalLoop=1;jettySize=auto;html=1;" edge="1" parent="1" source="WxFiv181dfcM7yHNMsCA-68" target="WxFiv181dfcM7yHNMsCA-70">
          <mxGeometry relative="1" as="geometry" />
        </mxCell>
        <mxCell id="WxFiv181dfcM7yHNMsCA-68" value="查询担保人全程&lt;div&gt;发行人全程&lt;/div&gt;&lt;div&gt;内评等级&lt;/div&gt;&lt;div&gt;信评池&lt;/div&gt;" style="whiteSpace=wrap;html=1;rounded=1;" vertex="1" parent="1">
          <mxGeometry x="190" y="910" width="120" height="60" as="geometry" />
        </mxCell>
        <mxCell id="WxFiv181dfcM7yHNMsCA-70" value="封装通过数据并返回" style="whiteSpace=wrap;html=1;rounded=1;" vertex="1" parent="1">
          <mxGeometry x="190" y="1000" width="120" height="60" as="geometry" />
        </mxCell>
        <mxCell id="WxFiv181dfcM7yHNMsCA-75" value="" style="edgeStyle=orthogonalEdgeStyle;rounded=0;orthogonalLoop=1;jettySize=auto;html=1;" edge="1" parent="1" source="WxFiv181dfcM7yHNMsCA-72" target="WxFiv181dfcM7yHNMsCA-74">
          <mxGeometry relative="1" as="geometry" />
        </mxCell>
        <mxCell id="WxFiv181dfcM7yHNMsCA-72" value="修改状态为待修改" style="whiteSpace=wrap;html=1;rounded=1;" vertex="1" parent="1">
          <mxGeometry y="1080" width="120" height="60" as="geometry" />
        </mxCell>
        <mxCell id="WxFiv181dfcM7yHNMsCA-74" value="这个好像只有现券和一级交易的逻辑" style="whiteSpace=wrap;html=1;rounded=1;" vertex="1" parent="1">
          <mxGeometry x="190" y="1080" width="120" height="60" as="geometry" />
        </mxCell>
      </root>
    </mxGraphModel>
  </diagram>
</mxfile>
